<svg width="100%" viewBox="0 0 680 724">
<defs>
  <marker id="arrow" viewBox="0 0 10 10" refX="8" refY="5" markerWidth="6" markerHeight="6" orient="auto-start-reverse">
    <path d="M2 1L8 5L2 9" fill="none" stroke="context-stroke" stroke-width="1.5" stroke-linecap="round" stroke-linejoin="round"/>
  </marker>
</defs>

<text class="ts" x="26" y="60" text-anchor="middle">[Tier 0]</text>
<text class="ts" x="26" y="140" text-anchor="middle">[CI]</text>
<text class="ts" x="26" y="307" text-anchor="middle">[Tier 1]</text>
<text class="ts" x="26" y="542" text-anchor="middle">[Tier 2]</text>

<g class="c-amber">
  <rect x="215" y="32" width="250" height="56" rx="8" stroke-width="0.5"/>
  <text class="th" x="340" y="55" text-anchor="middle" dominant-baseline="central">Git repository</text>
  <text class="ts" x="340" y="73" text-anchor="middle" dominant-baseline="central">declarative source of truth</text>
</g>

<line x1="340" y1="88" x2="340" y2="112" stroke="var(--color-text-secondary)" stroke-width="1.5" marker-end="url(#arrow)"/>

<g class="c-gray">
  <rect x="80" y="112" width="520" height="56" rx="8" stroke-width="0.5"/>
  <text class="th" x="340" y="133" text-anchor="middle" dominant-baseline="central">CI policy gate</text>
  <text class="ts" x="340" y="152" text-anchor="middle" dominant-baseline="central">deletion guard · schema validation · OPA policy checks</text>
</g>

<line x1="340" y1="168" x2="340" y2="200" stroke="var(--color-text-secondary)" stroke-width="1.5" marker-end="url(#arrow)"/>
<text class="ts" x="348" y="186">Flux pulls manifests</text>

<rect x="50" y="200" width="580" height="212" rx="14" fill="none" stroke="#7F77DD" stroke-width="1.5" stroke-dasharray="7 4"/>
<g class="c-purple">
  <text class="th" x="340" y="220" text-anchor="middle" dominant-baseline="central">Hub cluster</text>
  <text class="ts" x="340" y="238" text-anchor="middle" dominant-baseline="central">any Kubernetes distribution · Flux self-manages hub after bootstrap · 3+ control plane nodes (HA)</text>
</g>

<g class="c-purple">
  <rect x="62" y="252" width="148" height="148" rx="8" stroke-width="0.5"/>
  <text class="th" x="136" y="276" text-anchor="middle" dominant-baseline="central">Flux</text>
  <text class="ts" x="136" y="296" text-anchor="middle" dominant-baseline="central">GitOps reconcile</text>
  <text class="ts" x="136" y="314" text-anchor="middle" dominant-baseline="central">Git → hub cluster</text>
  <text class="ts" x="136" y="332" text-anchor="middle" dominant-baseline="central">Bootstraps spoke</text>
  <text class="ts" x="136" y="350" text-anchor="middle" dominant-baseline="central">Flux + ESO agents</text>
</g>
<path d="M62 400 C30 400 30 252 62 252" fill="none" stroke="#7F77DD" stroke-width="1.5" stroke-dasharray="4 3" marker-end="url(#arrow)"/>

<g class="c-purple">
  <rect x="222" y="252" width="178" height="148" rx="8" stroke-width="0.5"/>
  <text class="th" x="311" y="274" text-anchor="middle" dominant-baseline="central">Crossplane</text>
  <text class="ts" x="311" y="293" text-anchor="middle" dominant-baseline="central">Unified XRDs</text>
  <text class="ts" x="311" y="311" text-anchor="middle" dominant-baseline="central">cloud-agnostic</text>
  <text class="ts" x="311" y="329" text-anchor="middle" dominant-baseline="central">provider-aws</text>
  <text class="ts" x="311" y="347" text-anchor="middle" dominant-baseline="central">provider-azure</text>
  <text class="ts" x="311" y="365" text-anchor="middle" dominant-baseline="central">provider-gcp</text>
</g>

<g class="c-purple">
  <rect x="412" y="252" width="206" height="148" rx="8" stroke-width="0.5"/>
  <text class="th" x="515" y="274" text-anchor="middle" dominant-baseline="central">Cluster API</text>
  <text class="ts" x="515" y="293" text-anchor="middle" dominant-baseline="central">Kubeadm provider</text>
  <text class="ts" x="515" y="311" text-anchor="middle" dominant-baseline="central">own reconciliation loop</text>
  <text class="ts" x="515" y="329" text-anchor="middle" dominant-baseline="central">Infra provider</text>
  <text class="ts" x="515" y="347" text-anchor="middle" dominant-baseline="central">(Metal3 / CAPV / CAPO)</text>
</g>

<line x1="124" y1="412" x2="124" y2="452" stroke="var(--color-text-secondary)" stroke-width="1.5" marker-end="url(#arrow)"/>
<text class="ts" x="124" y="434" text-anchor="middle">provider-aws</text>
<line x1="262" y1="412" x2="262" y2="452" stroke="var(--color-text-secondary)" stroke-width="1.5" marker-end="url(#arrow)"/>
<text class="ts" x="262" y="434" text-anchor="middle">provider-azure</text>
<line x1="400" y1="412" x2="400" y2="452" stroke="var(--color-text-secondary)" stroke-width="1.5" marker-end="url(#arrow)"/>
<text class="ts" x="400" y="434" text-anchor="middle">provider-gcp</text>
<line x1="547" y1="412" x2="547" y2="452" stroke="var(--color-text-secondary)" stroke-width="1.5" marker-end="url(#arrow)"/>
<text class="ts" x="547" y="434" text-anchor="middle">CAPI</text>

<rect x="50" y="452" width="580" height="196" rx="14" fill="none" stroke="#1D9E75" stroke-width="1.5" stroke-dasharray="7 4"/>
<g class="c-teal">
  <text class="th" x="340" y="471" text-anchor="middle" dominant-baseline="central">Spoke clusters</text>
  <text class="ts" x="340" y="489" text-anchor="middle" dominant-baseline="central">own Flux agent · ESO + workload identity · independent of hub</text>
</g>

<g class="c-teal">
  <rect x="62" y="500" width="124" height="134" rx="8" stroke-width="0.5"/>
  <text class="th" x="124" y="516" text-anchor="middle" dominant-baseline="central">EKS</text>
  <text class="ts" x="124" y="534" text-anchor="middle" dominant-baseline="central">AWS managed</text>
  <text class="ts" x="124" y="551" text-anchor="middle" dominant-baseline="central">Managed HA</text>
  <text class="ts" x="124" y="568" text-anchor="middle" dominant-baseline="central">Crossplane</text>
  <text class="ts" x="124" y="585" text-anchor="middle" dominant-baseline="central">ESO + IRSA</text>
  <text class="ts" x="124" y="602" text-anchor="middle" dominant-baseline="central">→ AWS SM</text>
</g>

<g class="c-teal">
  <rect x="200" y="500" width="124" height="134" rx="8" stroke-width="0.5"/>
  <text class="th" x="262" y="516" text-anchor="middle" dominant-baseline="central">AKS</text>
  <text class="ts" x="262" y="534" text-anchor="middle" dominant-baseline="central">Azure managed</text>
  <text class="ts" x="262" y="551" text-anchor="middle" dominant-baseline="central">Managed HA</text>
  <text class="ts" x="262" y="568" text-anchor="middle" dominant-baseline="central">Crossplane</text>
  <text class="ts" x="262" y="585" text-anchor="middle" dominant-baseline="central">ESO + MI</text>
  <text class="ts" x="262" y="602" text-anchor="middle" dominant-baseline="central">→ AKV</text>
</g>

<g class="c-teal">
  <rect x="338" y="500" width="124" height="134" rx="8" stroke-width="0.5"/>
  <text class="th" x="400" y="516" text-anchor="middle" dominant-baseline="central">GKE</text>
  <text class="ts" x="400" y="534" text-anchor="middle" dominant-baseline="central">GCP managed</text>
  <text class="ts" x="400" y="551" text-anchor="middle" dominant-baseline="central">Managed HA</text>
  <text class="ts" x="400" y="568" text-anchor="middle" dominant-baseline="central">Crossplane</text>
  <text class="ts" x="400" y="585" text-anchor="middle" dominant-baseline="central">ESO + WI</text>
  <text class="ts" x="400" y="602" text-anchor="middle" dominant-baseline="central">→ GCP SM</text>
</g>

<g class="c-coral">
  <rect x="476" y="500" width="142" height="134" rx="8" stroke-width="0.5"/>
  <text class="th" x="547" y="516" text-anchor="middle" dominant-baseline="central">Kubeadm</text>
  <text class="ts" x="547" y="534" text-anchor="middle" dominant-baseline="central">On-prem</text>
  <text class="ts" x="547" y="551" text-anchor="middle" dominant-baseline="central">Self-managed</text>
  <text class="ts" x="547" y="568" text-anchor="middle" dominant-baseline="central">via CAPI</text>
  <text class="ts" x="547" y="585" text-anchor="middle" dominant-baseline="central">ESO + Vault</text>
  <text class="ts" x="547" y="602" text-anchor="middle" dominant-baseline="central">Flux agent</text>
</g>

<g class="c-teal"><rect x="148" y="662" width="10" height="10" rx="2" stroke-width="0.5"/></g>
<text class="ts" x="163" y="667" dominant-baseline="central">Cloud managed</text>
<g class="c-coral"><rect x="268" y="662" width="10" height="10" rx="2" stroke-width="0.5"/></g>
<text class="ts" x="283" y="667" dominant-baseline="central">On-prem</text>
<g class="c-purple"><rect x="360" y="662" width="10" height="10" rx="2" stroke-width="0.5"/></g>
<text class="ts" x="375" y="667" dominant-baseline="central">Hub operators (Crossplane · CAPI)</text>

<text class="ts" x="340" y="688" text-anchor="middle">Crossplane unified XRDs replace ACK · ASO · KCC · ESO + workload identity replaces hub SOPS push</text>
<text class="ts" x="340" y="706" text-anchor="middle">Bootstrap cluster (external, 1–3 nodes) provides hub cold-start recovery · not shown</text>
</svg>